<?xml version="1.0" encoding="UTF-8" standalone="no"?><svg xmlns="http://www.w3.org/2000/svg" xmlns:xlink="http://www.w3.org/1999/xlink" contentScriptType="application/ecmascript" contentStyleType="text/css" height="1095px" preserveAspectRatio="none" style="width:554px;height:1095px;background:#FFFFFF;" version="1.1" viewBox="0 0 554 1095" width="554px" zoomAndPan="magnify"><defs/><g><ellipse cx="288" cy="32" fill="#000000" rx="10" ry="10" style="stroke:none;stroke-width:1.0;"/><rect fill="#FFFFFF" height="40" rx="12.5" ry="12.5" style="stroke:#000000;stroke-width:1.5;" width="50" x="263" y="113"/><text fill="#000000" font-family="Verdana" font-size="14" lengthAdjust="spacing" textLength="27" x="274.5" y="138.5679">333</text><rect fill="#FFFFFF" height="40" rx="12.5" ry="12.5" style="stroke:#000000;stroke-width:1.5;" width="50" x="187" y="230"/><text fill="#000000" font-family="Verdana" font-size="14" lengthAdjust="spacing" textLength="27" x="198.5" y="255.5679">311</text><rect fill="#FFFFFF" height="40" rx="12.5" ry="12.5" style="stroke:#000000;stroke-width:1.5;" width="50" x="286" y="347"/><text fill="#000000" font-family="Verdana" font-size="14" lengthAdjust="spacing" textLength="27" x="297.5" y="372.5679">322</text><rect fill="#FFFFFF" height="40" rx="12.5" ry="12.5" style="stroke:#000000;stroke-width:1.5;" width="50" x="277" y="464"/><text fill="#000000" font-family="Verdana" font-size="14" lengthAdjust="spacing" textLength="27" x="288.5" y="489.5679">132</text><rect fill="#FFFFFF" height="40" rx="12.5" ry="12.5" style="stroke:#000000;stroke-width:1.5;" width="50" x="12" y="581"/><text fill="#000000" font-family="Verdana" font-size="14" lengthAdjust="spacing" textLength="27" x="23.5" y="606.5679">113</text><rect fill="#FFFFFF" height="40" rx="12.5" ry="12.5" style="stroke:#000000;stroke-width:1.5;" width="50" x="173" y="698"/><text fill="#000000" font-family="Verdana" font-size="14" lengthAdjust="spacing" textLength="27" x="184.5" y="723.5679">121</text><rect fill="#FFFFFF" height="40" rx="12.5" ry="12.5" style="stroke:#000000;stroke-width:1.5;" width="50" x="179" y="815"/><text fill="#000000" font-family="Verdana" font-size="14" lengthAdjust="spacing" textLength="27" x="190.5" y="840.5679">231</text><rect fill="#FFFFFF" height="40" rx="12.5" ry="12.5" style="stroke:#000000;stroke-width:1.5;" width="50" x="306" y="932"/><text fill="#000000" font-family="Verdana" font-size="14" lengthAdjust="spacing" textLength="27" x="317.5" y="957.5679">212</text><rect fill="#FFFFFF" height="40" rx="12.5" ry="12.5" style="stroke:#000000;stroke-width:1.5;" width="50" x="268" y="1049"/><text fill="#000000" font-family="Verdana" font-size="14" lengthAdjust="spacing" textLength="27" x="279.5" y="1074.5679">223</text><rect fill="#FFFFFF" height="40" rx="12.5" ry="12.5" style="stroke:#000000;stroke-width:1.5;" width="50" x="333" y="12"/><text fill="#000000" font-family="Verdana" font-size="14" lengthAdjust="spacing" textLength="27" x="344.5" y="37.5679">221</text><ellipse cx="358" cy="133" rx="10" ry="10" style="stroke:#000000;stroke-width:1.0;fill:none;"/><ellipse cx="358.5" cy="133.5" fill="#000000" rx="6" ry="6" style="stroke:none;stroke-width:1.0;"/><!--MD5=[fb61fd65bead53c1e82273fdefeabfe7]
link *start to 333--><path d="M288,42.14 C288,56.88 288,86.39 288,107.57 " fill="none" id="*start-to-333" style="stroke:#000000;stroke-width:1.0;"/><polygon fill="#000000" points="288,112.77,292.0257,103.7815,288.0143,107.77,284.0257,103.7586,288,112.77" style="stroke:#000000;stroke-width:1.0;"/><!--MD5=[32234db883d6ce89f60bb26cdc7c0a92]
link 333 to 311--><path d="M275.28,153.25 C262.18,173.07 241.75,203.98 227.67,225.29 " fill="none" id="333-to-311" style="stroke:#000000;stroke-width:1.0;"/><polygon fill="#000000" points="224.76,229.69,233.0596,224.3874,227.517,225.5188,226.3856,219.9762,224.76,229.69" style="stroke:#000000;stroke-width:1.0;"/><text fill="#000000" font-family="Verdana" font-size="13" lengthAdjust="spacing" textLength="22" x="256" y="197.0698">left</text><!--MD5=[972bfa57e7c6c7bb9b83d6d5f6e41056]
link 311 to 322--><path d="M225.35,270.03 C235.06,283.51 248.78,301.83 262,317 C269.61,325.73 278.42,334.82 286.46,342.77 " fill="none" id="311-to-322" style="stroke:#000000;stroke-width:1.0;"/><polygon fill="#000000" points="290.33,346.57,286.7018,337.4138,286.7589,343.0704,281.1024,343.1275,290.33,346.57" style="stroke:#000000;stroke-width:1.0;"/><text fill="#000000" font-family="Verdana" font-size="13" lengthAdjust="spacing" textLength="22" x="263" y="314.0698">left</text><!--MD5=[19949e4673ac44929d0d3f7ddb0219ce]
link 322 to 333--><path d="M309.1,346.84 C304.94,304.88 295.03,204.95 290.43,158.51 " fill="none" id="322-to-333" style="stroke:#000000;stroke-width:1.0;"/><polygon fill="#000000" points="289.92,153.38,286.838,162.7342,290.4189,158.355,294.7981,161.9359,289.92,153.38" style="stroke:#000000;stroke-width:1.0;"/><text fill="#000000" font-family="Verdana" font-size="13" lengthAdjust="spacing" textLength="22" x="303" y="255.5698">left</text><!--MD5=[7cfb69d6471ce659455c52000f08c04e]
link 322 to 132--><path d="M309.49,387.25 C307.96,406.82 305.58,437.21 303.92,458.49 " fill="none" id="322-to-132" style="stroke:#000000;stroke-width:1.0;"/><polygon fill="#000000" points="303.51,463.69,308.1923,455.0253,303.8957,458.7049,300.2161,454.4083,303.51,463.69" style="stroke:#000000;stroke-width:1.0;"/><text fill="#000000" font-family="Verdana" font-size="13" lengthAdjust="spacing" textLength="31" x="309" y="431.0698">right</text><!--MD5=[387fa167cf3839ed720e18019a78a612]
link 132 to 113--><path d="M276.8,497.23 C248.56,510.82 201.32,533.19 160,551 C128.54,564.57 92.01,578.95 66.99,588.59 " fill="none" id="132-to-113" style="stroke:#000000;stroke-width:1.0;"/><polygon fill="#000000" points="62.14,590.46,71.975,590.9827,66.8104,588.6747,69.1185,583.5101,62.14,590.46" style="stroke:#000000;stroke-width:1.0;"/><text fill="#000000" font-family="Verdana" font-size="13" lengthAdjust="spacing" textLength="22" x="197" y="548.0698">left</text><!--MD5=[1829656e3ec3d4a4d9747c17695e21d2]
link 113 to 121--><path d="M62.16,619.97 C90.9,640.5 137.89,674.07 168.38,695.84 " fill="none" id="113-to-121" style="stroke:#000000;stroke-width:1.0;"/><polygon fill="#000000" points="172.76,698.97,167.7501,690.4906,168.6875,696.0692,163.1088,697.0066,172.76,698.97" style="stroke:#000000;stroke-width:1.0;"/><text fill="#000000" font-family="Verdana" font-size="13" lengthAdjust="spacing" textLength="22" x="129" y="665.0698">left</text><!--MD5=[602ff0a27dd09a1b9c6f68cf50f150ce]
link 121 to 132--><path d="M206.59,697.84 C225.44,655.8 270.38,555.54 291.14,509.22 " fill="none" id="121-to-132" style="stroke:#000000;stroke-width:1.0;"/><polygon fill="#000000" points="293.31,504.38,285.9785,510.9564,291.2647,508.9425,293.2785,514.2288,293.31,504.38" style="stroke:#000000;stroke-width:1.0;"/><text fill="#000000" font-family="Verdana" font-size="13" lengthAdjust="spacing" textLength="22" x="260" y="606.5698">left</text><!--MD5=[fbc2a41883b1a99d2f792cdabca159c1]
link 121 to 231--><path d="M199,738.25 C200.03,757.82 201.61,788.21 202.72,809.49 " fill="none" id="121-to-231" style="stroke:#000000;stroke-width:1.0;"/><polygon fill="#000000" points="202.99,814.69,206.4963,805.4864,202.719,809.6974,198.508,805.9201,202.99,814.69" style="stroke:#000000;stroke-width:1.0;"/><text fill="#000000" font-family="Verdana" font-size="13" lengthAdjust="spacing" textLength="31" x="203" y="782.0698">right</text><!--MD5=[e40042bdd7d1623166daf5106268f752]
link 231 to 212--><path d="M225.26,855.25 C247.42,875.32 282.14,906.76 305.7,928.09 " fill="none" id="231-to-212" style="stroke:#000000;stroke-width:1.0;"/><polygon fill="#000000" points="309.67,931.69,305.6926,922.68,305.9671,928.3302,300.3169,928.6047,309.67,931.69" style="stroke:#000000;stroke-width:1.0;"/><text fill="#000000" font-family="Verdana" font-size="13" lengthAdjust="spacing" textLength="22" x="277" y="899.0698">left</text><!--MD5=[9c9c76a915d75cfc9bfc7865b83d4616]
link 212 to 223--><path d="M324.64,972.25 C318.15,991.9 308.05,1022.46 301.01,1043.76 " fill="none" id="212-to-223" style="stroke:#000000;stroke-width:1.0;"/><polygon fill="#000000" points="299.38,1048.69,306.0076,1041.4048,300.9526,1043.9437,298.4136,1038.8887,299.38,1048.69" style="stroke:#000000;stroke-width:1.0;"/><text fill="#000000" font-family="Verdana" font-size="13" lengthAdjust="spacing" textLength="22" x="316" y="1016.0698">left</text><!--MD5=[aa128a942e47d469d33689c73618ba0d]
link 223 to 231--><path d="M285.65,1048.84 C269.52,1006.8 231.06,906.54 213.29,860.22 " fill="none" id="223-to-231" style="stroke:#000000;stroke-width:1.0;"/><polygon fill="#000000" points="211.44,855.38,210.9435,865.2163,213.2378,860.0456,218.4085,862.3399,211.44,855.38" style="stroke:#000000;stroke-width:1.0;"/><text fill="#000000" font-family="Verdana" font-size="13" lengthAdjust="spacing" textLength="22" x="257" y="957.5698">left</text><!--MD5=[90d402c4147890f2fdd5b542993f7ffa]
link 223 to 333--><path d="M318.35,1066.47 C376.4,1061.46 514,1040.37 514,953 C514,249 514,249 514,249 C514,238.11 379.02,175.37 317.69,147.42 " fill="none" id="223-to-333" style="stroke:#000000;stroke-width:1.0;"/><polygon fill="#000000" points="313.05,145.31,319.5794,152.6834,317.5994,147.3844,322.8984,145.4044,313.05,145.31" style="stroke:#000000;stroke-width:1.0;"/><text fill="#000000" font-family="Verdana" font-size="13" lengthAdjust="spacing" textLength="31" x="515" y="606.5698">right</text><!--MD5=[a61b891fc883e32bcea6ef775ba8c7a7]
link 212 to 322--><path d="M356.46,935.35 C384.6,915.86 426,879.77 426,836 C426,483 426,483 426,483 C426,434.77 374.79,399.7 340.72,381.7 " fill="none" id="212-to-322" style="stroke:#000000;stroke-width:1.0;"/><polygon fill="#000000" points="336.24,379.38,342.3835,387.0779,340.6773,381.6845,346.0707,379.9783,336.24,379.38" style="stroke:#000000;stroke-width:1.0;"/><text fill="#000000" font-family="Verdana" font-size="13" lengthAdjust="spacing" textLength="31" x="427" y="665.0698">right</text><!--MD5=[8bd559ae33b88b2439a04303a65b3d5b]
link 231 to 311--><path d="M178.96,815.89 C153.88,795.46 119,759.72 119,719 C119,366 119,366 119,366 C119,325.05 155.09,290.5 182.3,270.26 " fill="none" id="231-to-311" style="stroke:#000000;stroke-width:1.0;"/><polygon fill="#000000" points="186.59,267.13,176.9596,269.1926,182.5476,270.0726,181.6676,275.6606,186.59,267.13" style="stroke:#000000;stroke-width:1.0;"/><text fill="#000000" font-family="Verdana" font-size="13" lengthAdjust="spacing" textLength="31" x="120" y="548.0698">right</text><!--MD5=[7f8ecccddb689eb8abe8799eb160ca4d]
link 113 to 223--><path d="M30.72,621.3 C23.91,643.96 14,682.79 14,717 C14,717 14,717 14,953 C14,1059.67 190.5,1069.41 262.73,1068.93 " fill="none" id="113-to-223" style="stroke:#000000;stroke-width:1.0;"/><polygon fill="#000000" points="267.75,1068.87,258.7047,1064.9734,262.7503,1068.9273,258.7964,1072.9729,267.75,1068.87" style="stroke:#000000;stroke-width:1.0;"/><text fill="#000000" font-family="Verdana" font-size="13" lengthAdjust="spacing" textLength="31" x="15" y="840.5698">right</text><!--MD5=[bd052599fa311a39f4584539d2633fe9]
link 132 to 212--><path d="M303.19,504.14 C307.79,578.04 324.39,844.8 329.5,926.83 " fill="none" id="132-to-212" style="stroke:#000000;stroke-width:1.0;"/><polygon fill="#000000" points="329.82,931.96,333.2459,922.7262,329.5054,926.9699,325.2617,923.2295,329.82,931.96" style="stroke:#000000;stroke-width:1.0;"/><text fill="#000000" font-family="Verdana" font-size="13" lengthAdjust="spacing" textLength="31" x="318" y="723.5698">right</text><!--MD5=[7524d8ce3d9a6b971a226a3d0be196be]
link 311 to 121--><path d="M211.43,270.14 C209.2,344.04 201.19,610.8 198.73,692.83 " fill="none" id="311-to-121" style="stroke:#000000;stroke-width:1.0;"/><polygon fill="#000000" points="198.57,697.96,202.8507,689.0901,198.7271,692.9625,194.8547,688.8388,198.57,697.96" style="stroke:#000000;stroke-width:1.0;"/><text fill="#000000" font-family="Verdana" font-size="13" lengthAdjust="spacing" textLength="31" x="207" y="489.5698">right</text><!--MD5=[1cacbeecb56423fc7e21ec0c9e458643]
link 333 to 113--><path d="M262.62,134 C198.12,135.46 33,148.96 33,249 C33,249 33,249 33,485 C33,516.39 34.51,552.57 35.67,575.83 " fill="none" id="333-to-113" style="stroke:#000000;stroke-width:1.0;"/><polygon fill="#000000" points="35.93,580.88,39.4611,571.6859,35.6725,575.8866,31.4717,572.098,35.93,580.88" style="stroke:#000000;stroke-width:1.0;"/><text fill="#000000" font-family="Verdana" font-size="13" lengthAdjust="spacing" textLength="31" x="34" y="372.5698">right</text><!--MD5=[bead07b7cc8bb0e1863dcd19d0a2c755]
link 221 to *end--><path d="M358,52.09 C358,71.17 358,100.1 358,117.41 " fill="none" id="221-to-*end" style="stroke:#000000;stroke-width:1.0;"/><polygon fill="#000000" points="358,122.81,362,113.81,358,117.81,354,113.81,358,122.81" style="stroke:#000000;stroke-width:1.0;"/><!--MD5=[8955b219354dbf26f14731acfaae7790]
@startuml
hide empty description
!theme plain
[*] - -> 333
333 - -> 311: left
311 - -> 322: left
322 - -> 333: left
322 - -> 132: right
132 - -> 113: left
113 - -> 121: left
121 - -> 132: left
121 - -> 231: right
231 - -> 212: left
212 - -> 223: left
223 - -> 231: left
223 - -> 333: right
212 - -> 322: right
231 - -> 311: right
113 - -> 223: right
132 - -> 212: right
311 - -> 121: right
333 - -> 113: right
221 - -> [*]
@enduml

@startuml
hide empty description







<style>
  root {
    BackgroundColor white
    FontColor black
    FontName Verdana
    HyperLinkColor blue
    LineColor black
    LineThickness 1
    Margin 5
  }
  caption {
    LineThickness 0
  }
  footer {
    LineThickness 0
  }
  header {
    LineThickness 0
  }
  node {
    MaximumWidth 300
  }
  title {
    FontSize 22
    LineThickness 0
  }
</style>

skinparam ArrowLollipopColor black
skinparam BackgroundColor white
skinparam DefaultFontName Verdana
skinparam DefaultMonospacedFontName Courier
skinparam LifelineStrategy nosolid
skinparam ParticipantPadding 10
skinparam SequenceLifeLineBorderColor black
skinparam Shadowing false
skinparam UseBetaStyle true

skinparam Activity {
  BackgroundColor white
  BarColor black
  BorderColor black
  FontColor black
  FontName Verdana
}
skinparam Boundary {
  FontColor black
}
skinparam Box {
  Padding 5
}
skinparam CircledCharacter {
  FontColor black
  FontName Courier
  Radius 9
}
skinparam Class {
  BackgroundColor white
  BorderColor black
  FontColor black
  FontName Verdana
}
skinparam ClassAttribute {
  FontColor black
  FontName Verdana
}
skinparam ClassStereotype {
  FontColor black
  FontName Verdana
}
skinparam Footer {
  FontColor black
  FontName Verdana
}
skinparam Header {
  FontColor black
  FontName Verdana
}
skinparam Hyperlink {
  Color blue
}
skinparam IconPackage {
  Color black
  BackgroundColor white
}
skinparam IconPrivate {
  Color black
  BackgroundColor white
}
skinparam IconProtected {
  Color black
  BackgroundColor white
}
skinparam IconPublic {
  Color black
  BackgroundColor white
}
skinparam Note {
  FontColor black
  FontName Verdana
}
skinparam Package {
  BorderColor black
  FontColor black
  FontName Verdana
}
skinparam State {
  BackgroundColor white
  BorderColor black
}
skinparam StereotypeA {
  BackgroundColor white
  BorderColor black
}
skinparam StereotypeC {
  BackgroundColor white
  BorderColor black
}
skinparam StereotypeE {
  BackgroundColor white
  BorderColor black
}
skinparam StereotypeI {
  BackgroundColor white
  BorderColor black
}
skinparam StereotypeN {
  BackgroundColor white
  BorderColor black
}
skinparam UseCaseStereoType {
  FontColor black
  FontName Verdana
}
[*] - -> 333
333 - -> 311: left
311 - -> 322: left
322 - -> 333: left
322 - -> 132: right
132 - -> 113: left
113 - -> 121: left
121 - -> 132: left
121 - -> 231: right
231 - -> 212: left
212 - -> 223: left
223 - -> 231: left
223 - -> 333: right
212 - -> 322: right
231 - -> 311: right
113 - -> 223: right
132 - -> 212: right
311 - -> 121: right
333 - -> 113: right
221 - -> [*]
@enduml

PlantUML version 1.2021.10(Mon Aug 30 06:43:48 PDT 2021)
(GPL source distribution)
Java Runtime: OpenJDK Runtime Environment
JVM: OpenJDK 64-Bit Server VM
Default Encoding: UTF-8
Language: en
Country: US
--></g></svg>